<svg version="1.1" viewBox="0.0 0.0 512.0 512.0" fill="none" stroke="none" stroke-linecap="square" stroke-miterlimit="10" xmlns:xlink="http://www.w3.org/1999/xlink" xmlns="http://www.w3.org/2000/svg"><clipPath id="p.0"><path d="m0 0l512.0 0l0 512.0l-512.0 0l0 -512.0z" clip-rule="nonzero"/></clipPath><g clip-path="url(#p.0)"><path fill="#000000" fill-opacity="0.0" d="m0 0l512.0 0l0 512.0l-512.0 0z" fill-rule="evenodd"/><path fill="#000000" fill-opacity="0.0" d="m33.75853 255.1916l0 0c0 -121.85054 99.49855 -220.62993 222.23622 -220.62993l0 0c58.940704 0 115.46738 23.244873 157.14474 64.621c41.67737 41.376137 65.09146 97.494225 65.09146 156.00891l0 0c0 121.85054 -99.498535 220.62993 -222.2362 220.62993l0 0c-122.73767 0 -222.23622 -98.77939 -222.23622 -220.62993z" fill-rule="evenodd"/><path stroke="#000000" stroke-width="24.0" stroke-linejoin="round" stroke-linecap="butt" d="m33.75853 255.1916l0 0c0 -121.85054 99.49855 -220.62993 222.23622 -220.62993l0 0c58.940704 0 115.46738 23.244873 157.14474 64.621c41.67737 41.376137 65.09146 97.494225 65.09146 156.00891l0 0c0 121.85054 -99.498535 220.62993 -222.2362 220.62993l0 0c-122.73767 0 -222.23622 -98.77939 -222.23622 -220.62993z" fill-rule="evenodd"/><path fill="#000000" fill-opacity="0.0" d="m15.270341 255.99475l0 0c0 -132.94843 108.135574 -240.72441 241.52757 -240.72441l0 0c64.05707 0 125.49057 25.361965 170.78577 70.506546c45.295197 45.144592 70.74179 106.37378 70.74179 170.21786l0 0c0 132.94843 -108.13559 240.7244 -241.52756 240.7244l0 0c-133.392 0 -241.52757 -107.77597 -241.52757 -240.7244z" fill-rule="evenodd"/><path stroke="#000000" stroke-width="24.0" stroke-linejoin="round" stroke-linecap="butt" d="m15.270341 255.99475l0 0c0 -132.94843 108.135574 -240.72441 241.52757 -240.72441l0 0c64.05707 0 125.49057 25.361965 170.78577 70.506546c45.295197 45.144592 70.74179 106.37378 70.74179 170.21786l0 0c0 132.94843 -108.13559 240.7244 -241.52756 240.7244l0 0c-133.392 0 -241.52757 -107.77597 -241.52757 -240.7244z" fill-rule="evenodd"/><path fill="#000000" fill-opacity="0.0" d="m24.519686 256.0l0 0c0 -127.28641 103.63727 -230.47244 231.48032 -230.47244l0 0c61.392395 0 120.270325 24.281847 163.6813 67.503815c43.41098 43.22197 67.79901 101.84354 67.79901 162.96863l0 0c0 127.28641 -103.63727 230.47244 -231.48032 230.47244l0 0c-127.84305 0 -231.48032 -103.186035 -231.48032 -230.47244z" fill-rule="evenodd"/><path stroke="#ff5500" stroke-width="24.0" stroke-linejoin="round" stroke-linecap="butt" d="m24.519686 256.0l0 0c0 -127.28641 103.63727 -230.47244 231.48032 -230.47244l0 0c61.392395 0 120.270325 24.281847 163.6813 67.503815c43.41098 43.22197 67.79901 101.84354 67.79901 162.96863l0 0c0 127.28641 -103.63727 230.47244 -231.48032 230.47244l0 0c-127.84305 0 -231.48032 -103.186035 -231.48032 -230.47244z" fill-rule="evenodd"/><path fill="#ff5500" d="m61.65354 256.0l0 0c0 -107.2737 87.01188 -194.23622 194.34647 -194.23622l0 0c51.543884 0 100.976654 20.464119 137.4237 56.890472c36.44702 36.42636 56.92276 85.8311 56.92276 137.34575l0 0c0 107.27371 -87.01187 194.2362 -194.34647 194.2362l0 0c-107.33458 0 -194.34647 -86.962494 -194.34647 -194.2362z" fill-rule="evenodd"/><path fill="#000000" fill-opacity="0.0" d="m116.750656 20.062992l257.60632 0l0 471.87402l-257.60632 0z" fill-rule="evenodd"/><path fill="#000000" fill-opacity="0.0" d="m136.72966 39.464565l261.95276 0l0 433.07086l-261.95276 0z" fill-rule="evenodd"/><path fill="#000000" d="m172.01091 137.89456l89.76561 0q23.5625 0 43.015625 7.515625q19.453125 7.5 33.109375 22.359375q13.65625 14.84375 21.15625 37.203125q7.515625 22.359375 7.515625 52.046875q0 29.703125 -7.515625 52.0625q-7.5 22.34375 -21.15625 37.203125q-13.65625 14.84375 -33.109375 22.359375q-19.453125 7.5 -43.015625 7.5l-89.76561 0l0 -238.25zm89.76561 192.17188q23.21875 0 36.53125 -12.96875q13.3125 -12.96875 13.3125 -41.640625l0 -36.875q0 -28.671875 -13.3125 -41.640625q-13.3125 -12.96875 -36.53125 -12.96875l-37.874985 0l0 146.09375l37.874985 0z" fill-rule="nonzero"/></g></svg>